<?xml version="1.0" encoding="utf-8"?>
<!-- Generator: Adobe Illustrator 22.0.1, SVG Export Plug-In . SVG Version: 6.00 Build 0)  -->
<svg version="1.1" xmlns="http://www.w3.org/2000/svg" xmlns:xlink="http://www.w3.org/1999/xlink" x="0px" y="0px"
	 viewBox="0 0 425.2 425.2" style="enable-background:new 0 0 425.2 425.2;" xml:space="preserve">
<style type="text/css">
	.st0{fill:#7D7D7D;}
	.st1{fill:#48C1C3;}
	.st2{fill:#EF3F50;}
</style>
<g id="Layer_2">
</g>
<g id="Layer_1">
	<path class="st2" d="M233.3,166.1C233.3,166.1,233.3,166.1,233.3,166.1c-0.6,1.4-1.4,2.8-2.2,4.4c0,0,0,0,0,0h0
		c-6.7,12.9-18.5,31.8-18.5,31.8l-11.9-19l12.8-23.3h-9.7c-2,0-3.7-1.6-3.7-3.7c0-0.4,0.1-0.8,0.2-1.1c0.1-0.4,0.3-0.8,0.6-1.2
		l8.4-16c0,0-6.7,0.4-10.3,4.8c-3.5,4.5-2.7,12.6-1.7,17c1,4.5,5.8,12.3,5.8,12.3L199,180c0,0-6.9-11.6-8.3-17.1
		c-1.4-5.5-2.1-9.9-1.1-16.6c1-6.7,9.1-20,31.9-14.6l-11.4,21h9.7c2,0,3.7,1.6,3.7,3.7c0,0.6-0.1,1.1-0.3,1.5l0,0L209.4,183l3.3,5
		c0,0,6.7-10.8,11.1-19.4c0,0,0,0,0,0c0,0,3-6.7,3.1-6.8c6-16.1-3.6-21.4-5.8-22.4v0l3.5-6.6c0,0,0,0,0,0c0.1,0,2.5,1.2,5.1,3.9
		c2.1,2.4,4.8,6.1,5.9,11.6C237,155.6,234.9,162.1,233.3,166.1z"/>
	<g id="XMLID_1_">
		<path id="XMLID_21_" class="st0" d="M53.8,284.6c-3.4-1.1-6.1-2.6-8.2-4.5c-0.7-0.7-1.1-1.6-1.1-2.6c0-0.7,0.2-1.3,0.6-1.8
			c0.4-0.5,0.9-0.8,1.4-0.8c0.6,0,1.3,0.3,2.1,0.8c4.6,3.6,9.9,5.4,15.8,5.4c4.3,0,7.6-0.8,9.9-2.5c2.3-1.6,3.4-4,3.4-7
			c0-1.7-0.5-3.1-1.6-4.2c-1.1-1.1-2.5-1.9-4.3-2.6c-1.8-0.6-4.2-1.3-7.2-2c-4.1-0.9-7.4-1.9-10-3c-2.6-1-4.7-2.5-6.3-4.5
			c-1.6-1.9-2.4-4.5-2.4-7.6c0-3,0.8-5.6,2.4-8c1.6-2.3,3.9-4.1,6.8-5.4c2.9-1.3,6.2-1.9,10-1.9c3.5,0,6.7,0.5,9.7,1.6
			c3,1.1,5.5,2.6,7.6,4.6c0.8,0.8,1.2,1.7,1.2,2.6c0,0.7-0.2,1.3-0.6,1.8c-0.4,0.5-0.9,0.8-1.4,0.8c-0.5,0-1.3-0.3-2.2-0.8
			c-2.4-2-4.7-3.4-6.8-4.2c-2.1-0.8-4.6-1.2-7.5-1.2c-4.1,0-7.3,0.9-9.6,2.6c-2.3,1.7-3.4,4.1-3.4,7.2c0,2.6,1,4.6,3,5.9
			c2,1.3,5.1,2.5,9.3,3.5c4.5,1.1,8.1,2.1,10.7,3c2.6,0.9,4.7,2.3,6.5,4.1c1.7,1.8,2.6,4.3,2.6,7.4c0,2.9-0.8,5.5-2.4,7.8
			c-1.6,2.2-3.9,4-6.8,5.2c-2.9,1.2-6.3,1.9-10.1,1.9C60.8,286.2,57.2,285.7,53.8,284.6z"/>
		<path id="XMLID_19_" class="st0" d="M123.1,283.3c0,0.7-0.3,1.4-0.8,1.9c-0.5,0.5-1.2,0.8-1.9,0.8c-0.6,0-1.3-0.3-2-0.9
			l-19.5-16.8V283c0,0.9-0.3,1.7-0.9,2.2c-0.6,0.5-1.3,0.8-2.1,0.8c-0.9,0-1.6-0.3-2.2-0.8c-0.6-0.5-0.9-1.3-0.9-2.2v-47.4
			c0-0.9,0.3-1.7,0.9-2.2c0.6-0.5,1.3-0.8,2.2-0.8c0.8,0,1.6,0.3,2.1,0.8c0.6,0.5,0.9,1.3,0.9,2.2v30.3l17.8-16.4
			c0.6-0.6,1.3-0.9,2-0.9c0.7,0,1.4,0.3,1.9,0.8c0.5,0.5,0.8,1.2,0.8,1.9c0,0.8-0.3,1.6-1,2.2l-14.7,13.1l16.1,14
			C122.7,281.6,123.1,282.4,123.1,283.3z"/>
		<path id="XMLID_17_" class="st0" d="M151.3,251.1c0,0.8-0.2,1.4-0.7,1.9c-0.4,0.5-1.2,0.8-2.3,0.9l-2.2,0.2
			c-3.3,0.3-5.8,1.5-7.4,3.5c-1.6,2.1-2.4,4.5-2.4,7.3V283c0,1-0.3,1.7-0.8,2.2c-0.5,0.5-1.3,0.7-2.2,0.7c-0.9,0-1.6-0.3-2.2-0.8
			c-0.6-0.5-0.9-1.3-0.9-2.2v-31.5c0-0.9,0.3-1.7,0.9-2.2c0.6-0.5,1.3-0.8,2.2-0.8c0.8,0,1.5,0.3,2,0.8c0.5,0.5,0.8,1.2,0.8,2.1v4.2
			c1-2.2,2.5-3.9,4.4-5c1.9-1.1,4.1-1.8,6.6-2l1-0.1C150.3,248.4,151.3,249.2,151.3,251.1z"/>
		<path id="XMLID_14_" class="st0" d="M184.8,262.7V283c0,0.9-0.3,1.6-0.8,2.2c-0.5,0.5-1.2,0.8-2.1,0.8c-0.9,0-1.6-0.3-2.2-0.8
			c-0.5-0.5-0.8-1.3-0.8-2.2v-3.6c-0.9,2.1-2.4,3.8-4.3,5c-1.9,1.2-4.2,1.8-6.7,1.8c-2.3,0-4.5-0.5-6.5-1.4c-2-0.9-3.5-2.3-4.7-4
			c-1.1-1.7-1.7-3.6-1.7-5.6c0-2.7,0.7-4.9,2.1-6.4c1.4-1.5,3.7-2.6,6.9-3.3c3.2-0.7,7.6-1,13.3-1h1.6V262c0-3-0.6-5.2-1.8-6.6
			c-1.2-1.4-3.2-2.1-5.9-2.1c-3.4,0-6.8,0.9-10.3,2.8c-1.3,0.8-2.3,1.3-2.8,1.3c-0.6,0-1.1-0.2-1.5-0.7c-0.4-0.4-0.6-1-0.6-1.7
			c0-0.7,0.2-1.3,0.6-1.8c0.4-0.5,1.1-1.1,2.1-1.6c1.7-1,3.7-1.8,5.9-2.4c2.2-0.6,4.4-0.9,6.6-0.9
			C180.2,248.4,184.8,253.2,184.8,262.7z M176,278.4c1.9-2,2.9-4.6,2.9-7.8v-2.2h-1.3c-4.4,0-7.7,0.2-10,0.6c-2.3,0.4-3.9,1-4.9,1.9
			c-1,0.9-1.5,2.2-1.5,3.8c0,1.9,0.7,3.5,2.1,4.8c1.4,1.3,3.2,1.9,5.3,1.9C171.6,281.4,174.1,280.4,176,278.4z"/>
		<path id="XMLID_12_" class="st0" d="M248.4,262.8V283c0,0.9-0.3,1.7-0.8,2.2s-1.3,0.8-2.2,0.8c-0.9,0-1.6-0.3-2.2-0.8
			c-0.6-0.5-0.9-1.3-0.9-2.2v-20.1c0-3.3-0.6-5.7-1.8-7.2c-1.2-1.5-3.1-2.2-5.6-2.2c-3,0-5.4,1-7.2,3.1c-1.7,2-2.6,4.8-2.6,8.3V283
			c0,0.9-0.3,1.7-0.9,2.2c-0.6,0.5-1.3,0.8-2.2,0.8c-0.9,0-1.6-0.3-2.2-0.8c-0.5-0.5-0.8-1.3-0.8-2.2v-20.1c0-3.3-0.6-5.7-1.8-7.2
			c-1.2-1.5-3.1-2.2-5.7-2.2c-3,0-5.4,1-7.1,3.1c-1.8,2-2.7,4.8-2.7,8.3V283c0,0.9-0.3,1.7-0.8,2.2s-1.3,0.8-2.2,0.8
			c-0.9,0-1.6-0.3-2.2-0.8c-0.6-0.5-0.9-1.3-0.9-2.2v-31.5c0-0.9,0.3-1.6,0.9-2.2c0.6-0.5,1.3-0.8,2.2-0.8c0.8,0,1.5,0.3,2.1,0.8
			c0.5,0.5,0.8,1.2,0.8,2.1v3.6c1.1-2.1,2.6-3.8,4.6-4.9c1.9-1.1,4.2-1.7,6.7-1.7c5.7,0,9.4,2.4,11.1,7.2c1-2.2,2.6-3.9,4.8-5.2
			c2.1-1.3,4.6-1.9,7.3-1.9C244.4,248.4,248.4,253.2,248.4,262.8z"/>
		<path id="XMLID_9_" class="st0" d="M286.2,250.7c2.4,1.5,4.3,3.7,5.7,6.6s2,6.1,2,9.9c0,3.8-0.7,7.1-2,10
			c-1.3,2.9-3.2,5.1-5.7,6.7c-2.4,1.6-5.3,2.4-8.4,2.4c-2.8,0-5.3-0.6-7.4-1.9c-2.1-1.2-3.7-3-4.8-5.3v4c0,0.9-0.3,1.6-0.8,2.2
			c-0.5,0.5-1.3,0.8-2.2,0.8c-0.9,0-1.7-0.3-2.2-0.8c-0.5-0.5-0.8-1.3-0.8-2.2v-47.5c0-0.8,0.3-1.5,0.8-2.1c0.5-0.5,1.3-0.8,2.2-0.8
			c0.9,0,1.7,0.3,2.2,0.8c0.5,0.5,0.8,1.2,0.8,2.1v20c1.1-2.3,2.7-4.1,4.8-5.3c2.1-1.2,4.6-1.9,7.4-1.9
			C280.9,248.4,283.7,249.2,286.2,250.7z M284.8,277.5c1.9-2.5,2.9-5.9,2.9-10.3c0-4.3-1-7.7-2.9-10.1c-1.9-2.4-4.7-3.6-8.2-3.6
			c-3.5,0-6.3,1.2-8.2,3.6c-1.9,2.4-2.9,5.8-2.9,10.2c0,4.4,1,7.9,2.9,10.3c1.9,2.4,4.6,3.6,8.2,3.6
			C280.1,281.2,282.8,279.9,284.8,277.5z"/>
		<path id="XMLID_7_" class="st0" d="M303.8,285.2c-0.6-0.5-0.9-1.3-0.9-2.2v-47.4c0-0.9,0.3-1.7,0.9-2.2c0.6-0.5,1.3-0.8,2.2-0.8
			c0.8,0,1.6,0.3,2.1,0.8c0.6,0.5,0.9,1.3,0.9,2.2V283c0,0.9-0.3,1.7-0.9,2.2c-0.6,0.5-1.3,0.8-2.1,0.8
			C305.1,286,304.3,285.8,303.8,285.2z"/>
		<path id="XMLID_4_" class="st0" d="M349.8,277.9c0.4,0.4,0.6,1,0.6,1.7c0,1.2-0.9,2.4-2.6,3.4c-1.8,1-3.7,1.8-5.7,2.4
			c-2,0.5-3.9,0.8-5.8,0.8c-5.6,0-10.1-1.7-13.3-5c-3.3-3.3-4.9-7.9-4.9-13.8c0-3.7,0.7-7,2.2-9.9c1.4-2.9,3.5-5.1,6.1-6.7
			c2.6-1.6,5.6-2.4,8.9-2.4c4.7,0,8.5,1.5,11.3,4.6c2.8,3.1,4.2,7.3,4.2,12.5c0,1-0.2,1.7-0.6,2.2c-0.4,0.4-1,0.7-1.9,0.7h-24
			c0.4,8.6,4.5,12.8,12.2,12.8c1.9,0,3.6-0.3,5-0.8c1.4-0.5,2.9-1.2,4.5-2.1c1.3-0.7,2.2-1.1,2.6-1.1
			C348.9,277.2,349.4,277.4,349.8,277.9z M327.7,256.1c-1.9,2-3.1,4.8-3.4,8.4h21.1c-0.1-3.7-1-6.5-2.8-8.5c-1.7-2-4.2-2.9-7.3-2.9
			C332.1,253.1,329.6,254.1,327.7,256.1z"/>
		<path id="XMLID_2_" class="st0" d="M380.7,251.1c0,0.8-0.2,1.4-0.7,1.9c-0.4,0.5-1.2,0.8-2.3,0.9l-2.2,0.2
			c-3.3,0.3-5.8,1.5-7.4,3.5c-1.6,2.1-2.4,4.5-2.4,7.3V283c0,1-0.3,1.7-0.8,2.2c-0.5,0.5-1.3,0.7-2.2,0.7c-0.9,0-1.6-0.3-2.2-0.8
			c-0.6-0.5-0.9-1.3-0.9-2.2v-31.5c0-0.9,0.3-1.7,0.9-2.2c0.6-0.5,1.3-0.8,2.2-0.8c0.8,0,1.5,0.3,2,0.8c0.5,0.5,0.8,1.2,0.8,2.1v4.2
			c1-2.2,2.5-3.9,4.4-5s4.1-1.8,6.6-2l1-0.1C379.7,248.4,380.7,249.2,380.7,251.1z"/>
	</g>
</g>
</svg>
